<?xml version="1.0" encoding="UTF-8"?>
<svg width="288px" height="70px" viewBox="0 0 288 70" version="1.1" xmlns="http://www.w3.org/2000/svg" xmlns:xlink="http://www.w3.org/1999/xlink">
    <!-- Generator: Sketch 52.6 (67491) - http://www.bohemiancoding.com/sketch -->
    <title>Small SVG</title>
    <desc>Created with Sketch.</desc>
    <g id="Small-SVG" stroke="none" stroke-width="1" fill="none" fill-rule="evenodd">
        <text id="SpikeForest" font-family="Alegreya-ExtraBold, Alegreya ExtraBold" font-size="50" font-weight="600" fill="#384CA2">
            <tspan x="36.25" y="52">SpikeForest</tspan>
        </text>
        <g id="Group" transform="translate(3.000000, 15.000000)">
            <path d="M15.0819525,0 C18.2086478,5.10917055 20.5657704,8.82988366 22.1533203,11.1621393 C23.7408702,13.494395 26.0230968,16.4403486 29,20 L2,20 C4.65919164,16.3767347 6.76091165,13.4307811 8.30516003,11.1621393 C9.84940841,8.89349756 12.1083392,5.17278445 15.0819525,0 Z" id="Triangle-Copy-5" fill="#F6CF3F"></path>
            <path d="M15,4 C17.7225399,8.73269744 19.8697079,12.2217576 21.4415039,14.4671805 C23.0132999,16.7126034 25.5327986,19.8902099 29,24 L1,24 C4.55220614,19.6513313 7.13960848,16.3179979 8.76220703,14 C10.3848056,11.6820021 12.4640699,8.34866874 15,4 Z" id="Triangle-Copy-2" fill="#807F83"></path>
            <path d="M18.8706961,28.7230481 C18.8685034,28.9229112 18.8688384,29.1184176 18.8717013,29.3095673 C18.8975362,31.0345545 19.1470991,33.5980321 19.6203897,37 C18.2347141,36.7550178 16.7068391,36.6325267 15.0367647,36.6325267 C13.3666903,36.6325267 11.8450502,36.7550178 10.4718443,37 C10.7373114,33.5820095 10.881695,31.0185319 10.9049952,29.3095673 C10.9076203,29.1170286 10.9089206,28.919783 10.9088959,28.7178305 C7.95971882,28.8078926 4.32342018,28.9890278 0,29.261236 C2.62753217,26.1389072 4.90173048,23.2164111 6.82259493,20.4937476 C8.74345938,17.7710841 11.4692611,13.6065016 15,8 C18.3503937,14.0608661 21.0406531,18.5300647 23.0707781,21.4075958 C25.100903,24.2851268 27.4106437,26.9030069 30,29.261236 C25.5655807,28.9941856 21.8558127,28.8147896 18.8706961,28.7230481 Z" id="Triangle-Copy-4" fill="#384CA2"></path>
        </g>
    </g>
</svg>